<svg xmlns="http://www.w3.org/2000/svg" viewBox="0 -0.5 32 32" shape-rendering="crispEdges">
  <path stroke="#202028" d="M24 2h3M22 3h2M22 4h1M22 5h1M26 5h1M22 6h1M26 6h1M22 7h1M26 7h1M22 8h1M27 8h1M21 9h1M27 9h1M20 10h4M27 10h1M18 11h2M24 11h2M28 11h1M17 12h1M26 12h1M28 12h1M16 13h1M27 13h2M15 14h1M27 14h2M14 15h1M27 15h1M13 16h1M27 16h1M12 17h3M26 17h1M11 18h1M14 18h2M25 18h1M10 19h3M15 19h3M24 19h1M9 20h1M12 20h2M17 20h7M8 21h3M13 21h2M20 21h2M5 22h15M3 23h3M16 23h2M2 24h1M2 25h1" />
  <path stroke="#2e3667" d="M24 3h1M26 3h1M23 4h1M27 4h2M24 5h1M27 5h1M25 6h1" />
  <path stroke="#2e5fa1" d="M25 3h1M24 4h1M26 4h1M25 5h1" />
  <path stroke="#4e63a4" d="M27 3h1M29 4h1" />
  <path stroke="#9c4939" d="M25 4h1" />
  <path stroke="#2e2a4f" d="M23 5h1M23 6h2M23 7h2M23 8h1M22 9h4M24 10h2M26 11h2M27 12h1" />
  <path stroke="#0f6588" d="M25 7h1M26 8h1M26 9h1" />
  <path stroke="#0e4a66" d="M24 8h2M26 10h1" />
  <path stroke="#8f8ba4" d="M20 11h4M18 12h4M17 13h3M16 14h3M15 15h3M14 16h3M26 16h1M15 17h1M25 17h1M12 18h2M24 18h1M13 19h1M23 19h1M10 20h2M11 21h1M19 21h1" />
  <path stroke="#d0d8fd" d="M22 12h4M22 13h4M21 14h5M20 15h5M19 16h5M18 17h5M18 18h4M18 19h2M16 20h1M15 21h2" />
  <path stroke="#a9b8cd" d="M20 13h2M19 14h2M18 15h2M17 16h2M17 17h1" />
  <path stroke="#aab9ce" d="M26 13h1M26 14h1M25 15h2M24 16h2M16 17h1M23 17h2M16 18h2M22 18h2M14 19h1M20 19h3M14 20h2M12 21h1M17 21h2" />
  <path stroke="#586979" d="M22 21h1M21 22h1M20 23h1M18 24h2M20 25h1M19 26h1M21 26h1" />
  <path stroke="#424b68" d="M20 22h1M18 23h2M16 24h2M20 24h1M21 25h1M22 26h1" />
  <path stroke="#5c5754" d="M6 23h2M3 24h2" />
  <path stroke="#3a323f" d="M8 23h8M5 24h4M3 25h3" />
  <path stroke="#202126" d="M9 24h7M6 25h2M3 26h3" />
  <path stroke="#15191a" d="M8 25h2M6 26h2M3 27h3M2 28h3M1 29h2" />
  <path stroke="#883b67" d="M22 25h1M20 26h1M24 26h1M19 27h1M21 27h1M24 27h2M22 28h1M24 28h1" />
  <path stroke="#693c67" d="M23 26h1M22 27h2" />
</svg>
