<svg fill="currentColor" height="24" viewBox="0 0 24 24" width="24" xmlns="http://www.w3.org/2000/svg">
  <path d="M6.36000013,1.23154143 L6.86672282,1.22963408 L7.31130081,1.30809295 L7.51232244,1.34999332 L7.71010556,1.43596421 L8.36488654,1.94895166 L8.91550086,2.82288328 L10.0035083,5.70602965 L10.4386045,6.63902244 L11.1885711,7.72182158 L11.7840906,8.2537727 L12.2124092,8.45459402 L12.3546034,8.54674145 L12.6426643,8.8298945 L13.7150134,9.94053819 L13.8955356,10.2717348 L14.162663,10.5385951 L14.8354728,11.5340545 L14.9838102,11.8265224 L15.8110671,12.7997463 L15.9647797,13.1366854 L16.6517789,13.9490518 L16.8215172,14.3492922 L17.4956291,15.5477764 L17.5327217,15.84168 L18.5759242,16.9594017 L18.634785,17.12293 L19.3364744,17.8914263 L19.5497156,18.2471621 L19.5959229,18.3615451 L20.0032746,18.6606904 L20.1732132,18.9797342 L20.3409482,19.1271701 L20.4658147,19.2852898 L20.6140519,19.3800414 L20.7513382,19.6474359 L20.9383374,19.7840545 L21.0380302,19.93543 L21.2333094,20.1142829 L21.3929982,20.4181691 L21.8863542,21.1886685 L21.8863542,21.2713007 L21.8198653,21.3094788 L21.6911574,21.2550354 L21.5543166,21.2917023 L21.1188002,21.0521088 L21.2157241,21.1886685 L21.429988,21.3976898 L21.7127028,21.7263184 L21.8368941,21.89711 L21.8863542,22.0715027 L21.785945,22.1099396 C21.7276157,22.084315 21.6855015,22.0715027 21.6596022,22.0715027 C21.6207534,22.0715027 21.6531935,22.1068115 21.6037551,22.1385956 C21.5543166,22.1703796 21.5277968,22.1941986 21.429988,22.1970367 C21.3647821,22.1989288 21.3186751,22.1979828 21.291667,22.1941986 C21.2309555,22.2835642 21.1568893,22.343867 21.0694686,22.3751068 C20.9383374,22.4219666 20.9147444,22.4490814 20.705577,22.4219666 C20.566132,22.40389 20.4669854,22.40389 20.4081374,22.4219666 C20.3855543,22.4834086 20.3407545,22.5345205 20.273738,22.5753021 C20.1732132,22.6364746 19.9764968,22.6673126 19.6164199,22.6364746 C19.3763686,22.6159159 19.0407668,22.5287933 18.6096144,22.3751068 L13.8668318,20.6392212 L14.0490676,20.8422852 L14.162663,20.962677 L14.2443038,21.0927429 L14.2993575,21.1689606 L14.3162337,21.2550354 L14.1801558,21.0927429 L13.9952803,21.019455 L13.9239913,20.962677 C13.7997237,20.8075663 13.7206984,20.7309163 13.6869155,20.7327271 C13.6531325,20.7345378 13.5563867,20.7336324 13.396678,20.730011 C13.2382613,20.9229736 13.0941013,21.019455 12.9641982,21.019455 C12.834295,21.019455 12.6580662,21.019455 12.4355117,21.019455 L11.7026015,21.1461639 L11.5313368,21.076004 L11.3823348,21.1247406 L11.4359084,20.8846741 L11.0076399,20.8846741 C10.8234257,20.8739522 10.6890212,20.8459473 10.6044264,20.8006592 C10.496379,20.8620758 10.3470565,20.8846741 10.2998458,20.8846741 C10.268372,20.8846741 10.2262882,20.8705444 10.1735945,20.8422852 L10.1735945,20.6392212 C10.0060358,20.6825053 9.8950297,20.744278 9.84057617,20.8245392 C9.85428411,20.840151 9.8517409,20.7327271 9.87416077,20.6129456 C9.98399353,20.5266571 10.1491089,20.4181691 10.5848541,20.4181691 C11.2831726,20.4181691 11.4835359,20.5500905 11.6642456,20.5462036 C11.7161318,20.5450876 11.7813071,20.5450876 11.8597717,20.5462036 C11.7549916,20.494578 11.7035792,20.4630636 11.7055346,20.4516602 C11.991544,20.3403168 12.1355668,20.3774801 12.1539459,20.3776245 C12.2063751,20.3780365 12.2741948,20.4001148 12.3161316,20.4181691 C12.4542542,20.4776326 12.4644074,20.4687653 12.4876251,20.4687653 C12.5241699,20.4687653 12.583118,20.4339111 12.6186066,20.4181691 C12.661438,20.3991699 12.7162021,20.2874647 12.7563171,20.2177734 C12.7960307,20.1487797 12.8348796,20.0871495 12.8728638,20.0328827 L11.2668915,19.1590271 L10.9226532,19.0279388 L10.8612976,19.1271701 L10.325531,18.5977478 L10.5405884,19.2057343 L10.1491089,18.9624329 L9.87416077,18.9987335 C9.80499776,19.0668996 9.73290507,19.1306254 9.65788269,19.1899109 C9.55802917,19.267395 9.44974772,19.3601125 9.33303833,19.4680634 L8.99128723,19.833786 C8.86328634,20.0230163 8.78680929,20.1411143 8.76185608,20.1880798 C8.73060523,20.2468985 8.78578624,20.2974074 8.79170227,20.3290558 C8.81077576,20.4310913 8.87938811,20.5088617 8.91550086,20.5266571 C9.09863281,20.5362244 9.20191956,20.545929 9.31037903,20.5630035 C9.4188385,20.5800781 9.71461487,20.6705475 9.77041626,20.7327271 C9.80761719,20.7741801 9.89593349,20.8886058 10.0353652,21.076004 C9.92429136,20.9706675 9.80848732,20.9254456 9.68795306,20.9403381 C9.68597959,20.961202 9.68499286,20.9875743 9.68499286,21.019455 L9.29404742,21.0927429 C9.11682315,21.0429281 8.99064096,20.9921265 8.91550086,20.9403381 C8.84036076,20.8885498 8.73916664,20.8558655 8.61191851,20.8422852 L8.39847857,20.9403381 L8.01894671,20.962677 C7.8238987,20.9162089 7.71186867,20.9008687 7.68285662,20.9166565 C7.66443418,20.9502462 7.62944069,21.003362 7.57787616,21.076004 L7.61469561,20.8846741 L7.15964801,21.0006561 L6.56258685,20.962677 L6.17235858,21.019455 L6.02556903,20.9004364 C5.963598,20.9329478 5.91310158,20.9663544 5.87407977,21.0006561 C5.83505796,21.0349579 5.80209389,21.0600739 5.77518756,21.076004 C5.80969277,20.8818919 5.84265684,20.7665609 5.87407977,20.730011 C5.92121417,20.6751862 5.94608599,20.6216736 6.05431659,20.5885315 C6.00994403,20.5801392 5.89722227,20.5801392 5.7161513,20.5885315 L5.64351947,20.5630035 L5.53591449,20.3991699 L5.33236224,20.3776245 L5.20302874,20.4687653 C5.2835748,20.3452199 5.37712644,20.2673645 5.48368365,20.235199 C5.59024086,20.2030334 5.66773008,20.1803843 5.7161513,20.1672516 C5.73849017,20.2215424 5.79113299,20.2632701 5.87407977,20.2924347 C5.99849994,20.3361816 6.12319476,20.3776245 6.21209246,20.3776245 C6.2713576,20.3776245 6.47864825,20.3776245 6.83396441,20.3776245 L7.01487262,20.4181691 L7.75513751,20.3991699 L8.41688067,19.6474359 L8.53644854,19.4680634 L8.64666278,19.2226715 L8.69237811,18.9247589 C8.70432065,18.564031 8.67750079,18.325587 8.61191851,18.2094269 C8.54633624,18.0932668 8.46399225,17.9372915 8.36488654,17.7415009 L7.9972182,17.2800446 L7.21976764,16.7645264 L6.99245745,16.5127716 L6.44480426,16.1253357 L6.14013202,15.8601685 L6.02556903,15.7186737 L5.6599837,15.3791809 L5.20302874,14.53685 L4.86863238,13.8011169 L4.77404315,13.6382751 L4.64780719,13.4278259 L4.5335036,12.8734131 L4.36893756,12.0294037 L4.36893756,11.2297974 C4.35649656,11.1012268 4.35018451,11.0061646 4.3500014,10.9446106 C4.34981829,10.8830566 4.36645037,10.7377421 4.39989764,10.508667 L4.4706679,9.83427429 L4.99355609,7.72182158 L5.21897418,6.63902244 L5.46262652,5.28038025 L5.55703265,5.00584412 L5.57545001,4.60505676 L5.41562945,3.72137451 L5.20302874,3.77636719 C5.10494525,3.82843018 4.99347979,3.90576681 4.86863238,4.00837708 C4.74378497,4.11098735 4.65359027,4.17878723 4.59804828,4.21177673 L4.55597979,4.29272461 C4.52601153,4.28618368 4.51851947,4.22354635 4.5335036,4.10481262 C4.54848773,3.9860789 4.58658892,3.85826619 4.64780719,3.72137451 L4.72158343,3.61373901 L4.90171344,3.42483521 L5.07453448,2.89279175 L5.20302874,2.74655151 L5.18525225,2.35449219 C5.2593998,2.04713949 5.30245501,1.87504069 5.3144179,1.8381958 C5.33236224,1.78292847 5.44103534,1.60548401 5.58173663,1.49111938 C5.67553749,1.4148763 5.93495866,1.32835032 6.36000013,1.23154143 Z M7.05471045,2.73236084 C7.19278164,2.73236084 7.30471045,2.61766052 7.30471045,2.50999999 C7.30471045,2.40233946 7.23358638,2.24891233 7.05471045,2.25999999 C6.87583453,2.27108765 6.82070453,2.40250731 6.82070453,2.50999999 C6.82070453,2.61749268 6.91663927,2.73236084 7.05471045,2.73236084 Z" id="Combined-Shape"></path>
</svg>
